<svg width="102" height="25" viewBox="0 0 102 25" fill="none" xmlns="http://www.w3.org/2000/svg">
<g clip-path="url(#clip0_3535_12530)">
<path d="M63.2788 1.78571C63.2788 0.799953 64.0641 0 65.0362 0C66.0082 0 66.7955 0.799953 66.7955 1.78571C66.7955 2.77148 66.0082 3.57143 65.0362 3.57143C64.0641 3.57143 63.2788 2.77148 63.2788 1.78571Z" fill="#0095DA"/>
<path d="M101.998 7.14453H98.4834V24.9997H101.998V7.14453Z" fill="#0095DA"/>
<path d="M98.4835 1.78571C98.4835 0.799953 99.2708 0 100.243 0C101.215 0 102.002 0.799953 102.002 1.78571C102.002 2.77148 101.215 3.57143 100.243 3.57143C99.2708 3.57143 98.4835 2.77148 98.4835 1.78571Z" fill="#0095DA"/>
<path d="M79.0968 10.7143H94.9708V0H91.4542V7.14286H79.0968C74.2444 7.14286 70.3081 11.1387 70.3081 16.0695C70.3081 21.0002 74.2482 24.998 79.1007 24.998H94.9689V21.4266H79.1007C76.1884 21.4266 73.8248 19.0287 73.8248 16.0695C73.8248 13.1102 76.1846 10.7123 79.0968 10.7123" fill="#0095DA"/>
<path d="M66.7934 7.14453H63.2787V24.9997H66.7934V7.14453Z" fill="#0095DA"/>
<path d="M50.9753 10.7143H35.1013V0H38.618V7.14286H50.9753C55.8278 7.14286 59.7621 11.1387 59.7621 16.0695C59.7621 21.0002 55.8239 24.998 50.9695 24.998H45.6166V21.4266H50.9695C53.8818 21.4266 56.2454 19.0287 56.2454 16.0695C56.2454 13.1102 53.8856 10.7123 50.9734 10.7123" fill="#0095DA"/>
<path d="M8.79859 24.9978H24.6591V21.4263H8.79089C5.88056 21.4263 3.51304 19.0284 3.51304 16.0711C3.51304 13.1139 5.88056 10.714 8.79089 10.714H22.844C25.7582 10.714 28.1218 13.1139 28.1218 16.0711C28.1218 21.0019 32.06 24.9978 36.9144 24.9978H42.1307V21.4263H36.9144C34.0022 21.4263 31.6423 19.0284 31.6423 16.0711C31.6423 11.1404 27.6984 7.14453 22.844 7.14453H8.79089C3.93842 7.14258 0.000244141 11.1384 0.000244141 16.0711C0.000244141 21.0039 3.94612 24.9978 8.79859 24.9978Z" fill="#0095DA"/>
</g>
<defs>
<clipPath id="clip0_3535_12530">
<rect width="102" height="25" fill="white"/>
</clipPath>
</defs>
</svg>
