<svg width="91" height="24" viewBox="0 0 91 24" fill="none" xmlns="http://www.w3.org/2000/svg">
<g clip-path="url(#clip0_3535_12492)">
<path d="M89.0266 0H84.6875C84.4313 0 84.1602 0.0150094 83.904 0.0450282L38.9765 4.68293C38.3287 4.74296 37.9822 5.05816 37.9822 5.68856V6.16886C37.9822 6.70919 38.4342 7.15948 38.9765 7.15948H89.0266C90.1113 7.15948 91.0002 6.27392 91.0002 5.19325V1.96623C91.0002 0.885554 90.1113 0 89.0266 0Z" fill="url(#paint0_linear_3535_12492)"/>
<path d="M9.52185 23.7767H8.37682C8.10563 23.7767 7.87964 23.5515 7.87964 23.2814V22.741C6.6894 23.4314 5.43891 23.9568 4.05281 23.9568C1.94354 23.9568 0 23.0412 0 19.9493V19.6491C0 16.9774 1.56689 15.6416 5.99636 15.6416H7.83444V14.651C7.83444 12.5647 7.11126 11.8442 5.16771 11.8442C3.55563 11.8442 2.35033 11.9493 1.35596 12.0393C1.31076 12.0393 1.28063 12.0393 1.23543 12.0393C1.00944 12.0393 0.783444 11.9643 0.783444 11.6491V10.7785C0.783444 10.5084 0.964238 10.3583 1.31076 10.3132C2.33526 10.1331 3.4803 9.99805 5.16771 9.99805C8.63295 9.99805 10.019 11.7391 10.019 14.651V23.2964C10.019 23.5665 9.80811 23.7767 9.52185 23.7767ZM7.83444 17.1875H5.99636C2.98311 17.1875 2.1846 17.863 2.1846 19.6191V19.9192C2.1846 21.7054 3.02831 22.1707 4.47467 22.1707C5.6197 22.1707 6.64421 21.8254 7.83444 21.18V17.1875Z" fill="#001BC1"/>
<path d="M21.9665 23.7757H14.4484C13.3787 23.7757 12.9268 23.1003 12.9268 22.4099V21.9446C12.9268 21.2542 13.0774 20.8789 13.4993 20.3386L19.9175 12.3836C19.9627 12.3086 20.0229 12.2335 20.0229 12.1585C20.0229 12.0534 19.9777 11.9784 19.7668 11.9784H13.7253C13.4541 11.9784 13.2281 11.7532 13.2281 11.4831V10.6425C13.2281 10.3724 13.4541 10.1472 13.7253 10.1472H21.0324C22.0569 10.1472 22.4185 10.6125 22.4185 11.363V11.9634C22.4185 12.4887 22.2377 12.8489 21.846 13.3292L15.3072 21.4793C15.2018 21.5844 15.1867 21.6744 15.1867 21.7495C15.1867 21.8695 15.2168 21.9446 15.3826 21.9446H21.9514C22.2226 21.9446 22.4486 22.1697 22.4486 22.4399V23.2804C22.4637 23.5656 22.2377 23.7757 21.9665 23.7757Z" fill="#001BC1"/>
<path d="M39.6994 23.7753H38.5091C38.238 23.7753 38.012 23.5502 38.012 23.28V10.0717C38.012 9.80156 38.238 9.57642 38.5091 9.57642H39.6994C39.9706 9.57642 40.1966 9.80156 40.1966 10.0717V23.28C40.1966 23.5652 39.9706 23.7753 39.6994 23.7753Z" fill="#001BC1"/>
<path d="M56.1971 10.1468L53.0633 21.4038C52.4456 23.6102 50.9239 24.0004 49.4625 24.0004C48.001 24.0004 46.5095 23.6102 45.8767 21.4038L42.773 10.1468C42.7429 10.1017 42.7429 10.0417 42.7429 9.99668C42.7429 9.74152 42.9237 9.57642 43.1346 9.57642H46.4191C46.6752 9.57642 46.8711 9.80156 46.9464 10.1017L49.0858 19.8128C49.1611 20.188 49.2817 20.3381 49.4625 20.3381C49.6432 20.3381 49.7788 20.188 49.8542 19.8128L51.9936 10.1017C52.0689 9.80156 52.2648 9.57642 52.5209 9.57642H55.8053C56.0313 9.57642 56.2272 9.75653 56.2272 9.99668C56.2272 10.0567 56.2272 10.1017 56.1971 10.1468Z" fill="#001BC1"/>
<path d="M68.7322 23.7758H65.945C65.6738 23.7758 65.4478 23.5507 65.4478 23.2805V22.8903C64.4836 23.5807 63.4892 24.001 61.9826 24.001C59.813 24.001 57.7339 22.9653 57.7339 19.7383V19.5132C57.7339 16.6164 59.6021 15.3256 63.8508 15.3256H65.1917V14.44C65.1917 13.0291 64.4986 12.7289 63.3235 12.7289C61.7264 12.7289 59.9637 12.834 59.1953 12.909H59.0748C58.8187 12.909 58.6228 12.789 58.6228 12.4588V10.4475C58.6228 10.1773 58.8036 9.98221 59.0898 9.90716C60.0089 9.68202 61.7566 9.38184 63.3988 9.38184C66.9845 9.38184 69.2143 10.8227 69.2143 14.44V23.2805C69.2294 23.5657 69.0034 23.7758 68.7322 23.7758ZM65.2821 17.712H63.8658C62.1182 17.712 61.6812 18.3124 61.6812 19.5282V19.7533C61.6812 20.789 62.2086 20.9991 63.2481 20.9991C64.0014 20.9991 64.6945 20.7439 65.2821 20.4588V17.712Z" fill="#001BC1"/>
<path d="M90.4728 23.7757H87.4596C87.1884 23.7757 86.9624 23.5205 86.9624 23.2504V14.8151C86.9624 13.2241 86.5857 12.7588 85.4407 12.7588C85.0189 12.7588 84.2656 12.8639 83.5273 13.2091C83.5725 13.7044 83.6026 14.2748 83.6026 14.8151V23.2654C83.6026 23.5356 83.3766 23.7907 83.1055 23.7907H80.0922C79.821 23.7907 79.5649 23.5356 79.5649 23.2654V14.8151C79.5649 13.2241 79.2636 12.7588 78.1185 12.7588C77.6515 12.7588 77.0036 13.014 76.2353 13.4042V23.2654C76.2353 23.5356 76.0093 23.7907 75.7381 23.7907H72.7248C72.4536 23.7907 72.1975 23.5356 72.1975 23.2654V10.0721C72.1975 9.80197 72.4235 9.57683 72.6947 9.57683H75.5271C75.7983 9.57683 76.0243 9.80197 76.0243 10.0721V10.6125C77.0639 9.92205 78.2692 9.3667 79.7005 9.3667C81.0263 9.3667 81.9454 9.74193 82.6384 10.5825C84.0848 9.77195 85.0791 9.3667 86.6912 9.3667C89.9757 9.3667 90.97 11.5431 90.97 14.8001V23.2654C91.0002 23.5356 90.744 23.7757 90.4728 23.7757Z" fill="#001BC1"/>
<path d="M27.5711 17.3675V23.2962C27.5711 23.5664 27.3451 23.7916 27.0739 23.7916H25.8837C25.6125 23.7916 25.3865 23.5664 25.3865 23.2962V5.64521C25.3865 5.37504 25.6125 5.1499 25.8837 5.1499H27.0739C27.3451 5.1499 27.5711 5.37504 27.5711 5.64521V15.9567V17.3675Z" fill="#001BC1"/>
<path d="M35.4661 23.1299L30.1175 16.6759L35.4661 10.2218C35.677 9.96666 35.4962 9.57642 35.1647 9.57642H33.7334C33.4924 9.57642 33.2664 9.68148 33.1157 9.8766L27.481 16.6909L33.1157 23.5051C33.2664 23.6852 33.4924 23.8053 33.7334 23.8053H35.1647C35.4962 23.7753 35.677 23.4001 35.4661 23.1299Z" fill="#001BC1"/>
</g>
<defs>
<linearGradient id="paint0_linear_3535_12492" x1="37.9822" y1="3.57974" x2="91.0002" y2="3.57974" gradientUnits="userSpaceOnUse">
<stop stop-color="#0000DD"/>
<stop offset="0.1067" stop-color="#010BDF"/>
<stop offset="0.2943" stop-color="#0428E4"/>
<stop offset="0.5408" stop-color="#0958EC"/>
<stop offset="0.8335" stop-color="#0F9AF8"/>
<stop offset="1" stop-color="#13C2FF"/>
</linearGradient>
<clipPath id="clip0_3535_12492">
<rect width="91" height="24" fill="white"/>
</clipPath>
</defs>
</svg>
