<svg width="67" height="22" viewBox="0 0 67 22" fill="none" xmlns="http://www.w3.org/2000/svg">
<path d="M49.5064 19.9089C49.5911 19.8985 50.3155 19.7949 50.7066 19.1366C51.0504 18.5614 50.881 17.9809 50.8547 17.8824C50.9393 17.9394 51.1717 18.0534 51.3621 18.1416C51.9755 18.4318 52.3349 18.5717 53.0011 18.722C53.7676 18.8982 54.5184 18.9708 55.3009 18.9604C55.8823 18.9501 56.4428 18.8671 57.0082 18.722C57.8384 18.5095 58.5839 18.1104 59.308 17.6647C59.6991 17.4263 59.7415 17.0532 59.4244 16.7163C59.3611 16.6489 59.292 16.5867 59.2287 16.5193C57.595 14.9178 55.9667 13.3215 54.3334 11.7252C54.0476 11.4453 53.8523 11.1291 53.8416 10.7145C53.8256 10.274 53.9736 9.90597 54.2964 9.60537C54.9148 9.01973 55.5333 8.43923 56.1517 7.85356C57.1616 6.90512 58.1715 5.95147 59.1864 5.003C59.3397 4.85789 59.4984 4.71275 59.6518 4.56246C60.0005 4.2152 59.9582 3.84722 59.5354 3.58291C58.8693 3.16828 58.1501 2.86249 57.3836 2.68109C55.1105 2.13171 52.9217 2.33901 50.8386 3.42223C50.807 3.43777 50.6643 3.53108 50.4582 3.58809C50.3999 3.60363 50.2095 3.65546 49.9928 3.6451C49.4747 3.61399 49.1313 3.20454 49.11 3.17864C48.8456 2.85213 48.7822 2.43232 48.8776 2.09542C48.8879 2.04877 48.9196 1.95031 48.9833 1.84147C49.1683 1.52532 49.4644 1.38019 49.6334 1.29208C50.6116 0.773794 51.6425 0.416177 52.7367 0.219231C53.4608 0.0896575 54.1957 -0.013999 54.9358 0.00154763C57.2833 0.0481942 59.4454 0.67532 61.3751 2.00733C62.0096 2.44786 62.5857 2.95576 63.1302 3.49478C63.3945 3.75913 63.4209 4.12193 63.1252 4.41214C62.0569 5.46428 61.0051 6.52675 59.9425 7.58925C59.086 8.44441 58.2295 9.30476 57.373 10.16C57.0399 10.4968 57.0399 10.7923 57.3836 11.1343C58.0074 11.7563 58.6312 12.373 59.255 12.9898C60.5556 14.2803 61.8509 15.5708 63.1515 16.8614C63.1622 16.8769 63.1778 16.8873 63.1885 16.9028C63.4632 17.1931 63.4739 17.4522 63.2042 17.7528C62.7868 18.2141 62.332 18.6339 61.8299 19.0019C60.3229 20.1214 58.6312 20.8574 56.7652 21.1476C54.2857 21.5363 51.9755 21.1891 49.7498 20.0281C49.6967 20.0177 49.5857 19.9607 49.5064 19.9089Z" fill="#12497D"/>
<path d="M48.085 2.27319C48.0586 2.35093 47.8843 3.12318 48.307 3.70367C48.307 3.70367 48.307 3.70885 48.3123 3.70885C48.8198 4.32042 49.4066 4.3515 49.5019 4.36186C49.4226 4.44481 49.3592 4.507 49.2956 4.5692C47.8893 5.8649 46.9801 7.44048 46.6947 9.31149C46.2346 12.3538 47.2181 14.9038 49.5493 16.9666C49.6656 17.0702 49.7927 17.1739 49.8877 17.2931C50.2524 17.7285 50.2367 18.3659 49.8773 18.8013C49.5123 19.2367 48.8781 19.3662 48.3757 19.1123C48.212 19.0293 48.0693 18.9101 47.9263 18.7909C45.8752 17.0754 44.5639 14.9245 44.1728 12.302C43.5914 8.42525 44.8336 5.16523 47.7836 2.53233C47.8576 2.45459 47.9423 2.38722 48.085 2.27319Z" fill="#CD3759"/>
<path d="M62.9564 13.9798C62.8084 13.8399 62.6871 13.7259 62.5707 13.6118C61.7299 12.767 60.884 11.9274 60.0489 11.0826C59.9485 10.979 59.8478 10.8546 59.8108 10.725C59.7475 10.5177 59.7951 10.3104 59.9588 10.1445C60.3502 9.7506 60.736 9.35154 61.1221 8.95763C61.2541 8.82288 61.4075 8.76587 61.5978 8.76587C62.4914 8.76587 63.3899 8.77105 64.2834 8.76587C64.4844 8.76587 64.6431 8.83842 64.7752 8.97838C65.1399 9.35672 65.5153 9.7247 65.8854 10.103C66.2024 10.4296 66.2024 10.7302 65.8747 11.0619C65.2192 11.7253 64.5638 12.3887 63.903 13.0469C63.6756 13.275 63.4482 13.5082 63.2208 13.7362C63.1468 13.8088 63.0621 13.8814 62.9564 13.9798Z" fill="#CD3759"/>
<path d="M13.4783 14.2527C13.3673 14.4185 13.2827 14.5429 13.2035 14.6673C11.6069 17.1136 8.70977 18.3368 5.78624 17.7977C2.96316 17.2795 0.689899 15.0612 0.129518 12.2573C0.0555025 11.8893 0.00792662 11.5109 0.00792662 11.1378C-0.00264221 8.95062 -0.00264221 6.76864 0.00792662 4.58145C0.0132277 3.55524 0.832661 2.8763 1.86884 3.00586C2.57195 3.09399 3.13763 3.70038 3.19051 4.42598C3.20108 4.56073 3.19578 4.69547 3.19578 4.83022C3.19578 6.85155 3.19051 8.86767 3.19578 10.889C3.20108 12.874 4.72892 14.5637 6.68499 14.7554C8.76265 14.9627 10.5971 13.6929 11.0359 11.7234C11.1258 11.3295 11.1469 10.9149 11.1469 10.5106C11.1575 8.94544 11.1416 7.37503 11.1575 5.80981C11.1681 4.44152 12.0827 3.34794 13.4255 3.04734C14.2185 2.87112 14.3612 2.97478 14.3612 3.7574C14.3612 5.8979 14.356 8.03844 14.3665 10.1789C14.3718 11.06 14.9428 11.7442 15.8045 11.9256C15.9525 11.9566 16.1111 11.9618 16.2644 11.9618C17.2953 11.9618 18.3262 11.9618 19.3571 11.9566C19.9862 11.9515 20.3299 11.6301 20.3299 11.0134C20.3352 9.17346 20.3299 7.33356 20.3352 5.49884C20.3352 5.19823 20.3669 4.89241 20.4462 4.60738C20.7052 3.67963 21.5722 3.01622 22.5556 3.00586C24.4323 2.99032 26.3091 2.98514 28.1858 3.01104C29.6821 3.0318 30.9297 4.26012 30.9931 5.72686C31.0091 6.05858 30.9984 6.39027 30.9984 6.72199C30.9984 8.74328 31.0037 10.7594 30.9984 12.7807C30.9931 14.0195 30.1632 14.9316 28.905 14.9731C27.398 15.0249 25.8913 14.9938 24.3847 14.9886C24.0887 14.9886 24.0358 14.9316 24.0305 14.6362C24.02 14.1231 24.0094 13.61 24.0358 13.0969C24.0675 12.4542 24.4799 12.0759 25.1355 12.0655C25.643 12.0551 26.1504 12.0655 26.6582 12.0603C27.3823 12.05 27.7631 11.682 27.7681 10.9667C27.7734 9.62438 27.7734 8.28203 27.7681 6.94483C27.7681 6.28663 27.4193 5.95491 26.7372 5.94973C26.029 5.94455 25.3205 5.94455 24.6174 5.94973C23.9513 5.95491 23.597 6.30217 23.5917 6.9604C23.5865 8.87285 23.5917 10.7905 23.5865 12.703C23.5865 12.9829 23.5495 13.2783 23.4649 13.5478C23.1953 14.403 22.3864 15.0042 21.4559 15.0094C19.6109 15.0249 17.7659 15.0249 15.9208 15.0042C15.223 14.999 14.5568 14.8021 13.933 14.4859C13.7903 14.4082 13.6528 14.3408 13.4783 14.2527Z" fill="#12497D"/>
<path d="M40.689 14.9766C40.557 14.987 40.483 15.0025 40.409 15.0025C38.5163 15.0025 36.6235 15.0181 34.7312 14.9973C33.4412 14.987 32.352 14.1163 32.072 12.8879C31.9926 12.5407 31.9873 12.1675 31.9873 11.8099C31.9819 9.06817 31.9819 6.32127 31.9819 3.57952C31.9819 3.51732 31.9819 3.46031 31.9873 3.39812C32.0136 3.07679 32.093 2.96795 32.41 3.00424C32.7854 3.04568 33.1822 3.09751 33.5202 3.24783C34.6201 3.75056 35.2173 4.62126 35.2333 5.81851C35.2543 7.46147 35.2386 9.10446 35.2386 10.7474C35.2386 10.8666 35.2333 10.991 35.2386 11.1102C35.2596 11.6855 35.614 12.0328 36.1955 12.0379C37.3164 12.0431 38.4423 12.0379 39.5631 12.0379C39.7005 12.0379 39.8432 12.0328 39.9756 12.0483C40.3506 12.0898 40.652 12.3489 40.668 12.7169C40.705 13.4529 40.689 14.194 40.689 14.9766Z" fill="#12497D"/>
<path d="M7.26695 9.63829C6.70126 9.10445 6.15675 8.59651 5.62281 8.08342C5.45361 7.91756 5.47478 7.73098 5.63338 7.55994C5.80782 7.37336 5.97702 7.16606 6.17789 7.01056C6.29948 6.91729 6.47922 6.86546 6.63255 6.8551C6.98676 6.83434 7.34096 6.86028 7.68987 6.84471C7.97009 6.83435 8.1974 6.9069 8.37714 7.12977C8.49873 7.28527 8.65206 7.41484 8.78952 7.55476C8.95339 7.72062 8.97983 7.89684 8.80536 8.07306C8.28729 8.6069 7.76388 9.13553 7.26695 9.63829Z" fill="#CD3759"/>
<path d="M38.0503 15.7734C38.8324 15.7787 39.5832 15.7734 40.3341 15.7838C40.5718 15.789 40.6935 15.9393 40.6935 16.1673C40.6988 16.4213 40.7198 16.6804 40.6881 16.9344C40.6671 17.0847 40.5718 17.2402 40.4661 17.3542C40.2284 17.6082 39.9533 17.8311 39.7049 18.0798C39.5092 18.2768 39.2872 18.3597 39.0071 18.3493C38.8324 18.3493 38.6211 18.3493 38.4203 18.3441C38.1876 18.3338 38.0289 18.1886 38.0289 17.9451C38.0396 17.2143 38.0503 16.4783 38.0503 15.7734Z" fill="#CD3759"/>
</svg>
