<svg width="139" height="21" viewBox="0 0 139 21" fill="none" xmlns="http://www.w3.org/2000/svg">
<g clip-path="url(#clip0_3535_12512)">
<path d="M112.195 0.000244141H105.916C105.367 0.000244141 104.922 0.440999 104.922 0.984698V7.2015C104.922 7.7452 105.367 8.18596 105.916 8.18596H112.195C112.745 8.18596 113.19 7.7452 113.19 7.2015V0.984698C113.19 0.440999 112.745 0.000244141 112.195 0.000244141Z" fill="#CF2A30"/>
<path d="M112.195 11.6279H105.916C105.367 11.6279 104.922 12.0687 104.922 12.6124V18.9136C104.922 19.4573 105.367 19.8981 105.916 19.8981H112.195C112.745 19.8981 113.19 19.4573 113.19 18.9136V12.6124C113.19 12.0687 112.745 11.6279 112.195 11.6279Z" fill="#CF2A30"/>
<path d="M124.03 0.000244141H117.659C117.11 0.000244141 116.665 0.440999 116.665 0.984698V7.2015C116.665 7.7452 117.11 8.18596 117.659 8.18596H124.03C124.579 8.18596 125.025 7.7452 125.025 7.2015V0.984698C125.025 0.440999 124.579 0.000244141 124.03 0.000244141Z" fill="#CF2A30"/>
<path d="M124.03 11.6279H117.659C117.11 11.6279 116.665 12.0687 116.665 12.6124V18.9136C116.665 19.4573 117.11 19.8981 117.659 19.8981H124.03C124.579 19.8981 125.025 19.4573 125.025 18.9136V12.6124C125.025 12.0687 124.579 11.6279 124.03 11.6279Z" fill="#CF2A30"/>
<path d="M132.943 9.94846L138.821 18.351C139.278 19.0039 138.805 19.8964 138.003 19.8964H134.425C134.099 19.8964 133.794 19.7375 133.608 19.4716L127.336 10.5081C127.101 10.1703 127.101 9.7241 127.336 9.38628L133.608 0.422837C133.794 0.15687 134.099 -0.00195312 134.425 -0.00195312H138.003C138.805 -0.00195312 139.278 0.890484 138.821 1.54342L132.943 9.94594V9.94846Z" fill="black"/>
<path d="M20.5145 7.08556C20.9157 6.98977 21.3016 7.28977 21.3016 7.69817V11.1734C21.3016 11.9146 21.1169 12.599 20.7501 13.2267C20.3821 13.8545 19.8803 14.3536 19.246 14.7242C18.6117 15.0948 17.9201 15.2801 17.1712 15.2801C16.6758 15.2801 16.1906 15.183 15.7155 14.9877C15.392 14.8553 15.0965 14.699 14.829 14.5162C14.6113 14.3688 14.3234 14.3763 14.1082 14.5263C13.842 14.7116 13.5503 14.8679 13.2319 14.9965C12.7619 15.1856 12.2805 15.2788 11.7851 15.2788H10.5293V16.2583C10.5293 17.0372 10.3357 17.7532 9.9485 18.4062C9.56132 19.0591 9.03786 19.5746 8.37812 19.9515C7.71838 20.3284 7.00133 20.5162 6.22696 20.5162H4.32289C3.53578 20.5162 2.81236 20.3284 2.15262 19.9515C1.49288 19.5746 0.969422 19.0591 0.582239 18.4062C0.195056 17.7532 0.00146484 17.0372 0.00146484 16.2583V11.8351C0.00146484 11.5452 0.201424 11.2931 0.485444 11.2238L2.14371 10.8192C2.5449 10.7209 2.93336 11.0221 2.93336 11.4305V16.2583C2.93336 16.6351 3.06964 16.9578 3.34219 17.2288C3.61475 17.4986 3.94207 17.6335 4.32289 17.6335H6.22696C6.59504 17.6335 6.91472 17.4986 7.18855 17.2288C7.46111 16.9591 7.59738 16.6351 7.59738 16.2583V8.29817C7.59738 7.95027 7.88268 7.66792 8.2342 7.66792H9.89246C10.244 7.66792 10.5293 7.95027 10.5293 8.29817V11.7482C10.5293 12.0961 10.8146 12.3784 11.1661 12.3784H11.7851C12.1277 12.3784 12.4232 12.2562 12.6702 12.0104C12.9173 11.7658 13.0409 11.4734 13.0409 11.1343V8.29817C13.0409 7.95027 13.3262 7.66792 13.6777 7.66792H15.3359C15.6875 7.66792 15.9728 7.95027 15.9728 8.29817V11.191C15.9728 11.5175 16.0899 11.7973 16.3243 12.0293C16.5586 12.2625 16.8414 12.3784 17.1712 12.3784C17.5011 12.3784 17.803 12.2625 18.0373 12.0293C18.2717 11.7973 18.3901 11.5175 18.3901 11.191V8.08892C18.3901 7.79775 18.5913 7.54439 18.8766 7.47632L20.5158 7.0843L20.5145 7.08556Z" fill="black"/>
<path d="M38.395 7.66432V11.0059C38.395 11.7723 38.2015 12.4845 37.8143 13.1437C37.4271 13.8042 36.9011 14.3248 36.235 14.708C35.5689 15.0912 34.848 15.2828 34.0736 15.2828C34.0545 15.2828 34.0354 15.2828 34.0163 15.2815C33.5043 15.2752 33.0152 15.1782 32.5516 14.9904C32.2192 14.8568 31.9123 14.6891 31.6283 14.4862C31.4066 14.3286 31.1086 14.3273 30.887 14.4849C30.5915 14.6967 30.2706 14.8681 29.9241 15.0004C29.43 15.1883 28.9091 15.2828 28.3639 15.2828H23.747C23.3942 15.2828 23.1102 15.0004 23.1102 14.6526V13.0114C23.1102 12.6635 23.3942 12.3811 23.747 12.3811H24.0616V3.41516C24.0616 3.13533 24.2476 2.88827 24.5201 2.81012L26.1771 2.33113C26.5847 2.21264 26.9935 2.51516 26.9935 2.93617V11.7509C26.9935 12.0988 27.2775 12.3811 27.6303 12.3811H28.3639C28.7562 12.3811 29.0899 12.2488 29.3625 11.9853C29.635 11.7219 29.7726 11.3954 29.7726 11.0059V3.28533C29.7726 2.99541 29.9713 2.74331 30.2553 2.67272L31.8944 2.27062C32.2956 2.17104 32.6841 2.4723 32.6841 2.88197V11.0059C32.6841 11.3954 32.8178 11.7219 33.084 11.9853C33.3502 12.2488 33.6801 12.3811 34.0736 12.3811C34.4672 12.3811 34.7779 12.2488 35.0454 11.9853C35.3116 11.7219 35.444 11.3954 35.444 11.0059V8.07146C35.444 7.78154 35.6453 7.52818 35.9293 7.45885L37.6067 7.05297C38.0079 6.95465 38.395 7.25591 38.395 7.66432Z" fill="black"/>
<path d="M34.0165 15.2825L34.0738 15.2837C34.0547 15.2837 34.0356 15.2837 34.0165 15.2825ZM36.3689 17.1669H32.655C32.3035 17.1669 32.0182 17.4493 32.0182 17.7972V18.7791C32.0182 19.127 32.3035 19.4094 32.655 19.4094H34.0662C34.4177 19.4094 34.703 19.6917 34.703 20.0396V20.3711C34.703 20.7984 35.1233 21.1022 35.5347 20.9711L36.5638 20.6434C36.8274 20.5589 37.0057 20.3169 37.0057 20.0434V17.7972C37.0057 17.4493 36.7204 17.1669 36.3689 17.1669Z" fill="black"/>
<path d="M55.8795 8.86935C55.4923 8.2101 54.965 7.68825 54.2989 7.30506C53.6328 6.92187 52.9119 6.73027 52.1388 6.73027H48.4542C48.1027 6.73027 47.8174 7.01262 47.8174 7.36052V11.0072C47.8174 11.3841 47.6811 11.708 47.4086 11.9778C47.1347 12.2475 46.8087 12.3824 46.4279 12.3824C46.0471 12.3824 45.7019 12.25 45.4281 11.9866C45.1555 11.7231 45.0192 11.3967 45.0192 11.0072V2.92103C45.0192 2.51136 44.6308 2.2101 44.2296 2.30968L42.5904 2.71178C42.3064 2.78237 42.1064 3.03447 42.1064 3.32313V11.0072C42.1064 11.7862 42.3 12.5021 42.6872 13.1551C43.0744 13.808 43.5979 14.3261 44.2576 14.7093C44.9072 15.0862 45.6166 15.2778 46.3897 15.2828C46.4024 15.2841 46.4151 15.2841 46.4279 15.2841C46.973 15.2841 47.4901 15.1832 47.9791 14.9828C48.3103 14.8467 48.6172 14.6727 48.8987 14.4609C49.1267 14.2895 49.44 14.2895 49.6693 14.4597C49.9431 14.6626 50.2462 14.8341 50.5773 14.9727C51.0728 15.1807 51.5924 15.2841 52.1388 15.2841C52.9119 15.2841 53.6328 15.0925 54.2989 14.7093C54.965 14.3261 55.4923 13.8055 55.8795 13.145C56.2666 12.4857 56.4602 11.7735 56.4602 11.0072C56.4602 10.2408 56.2666 9.52859 55.8795 8.86935ZM53.0953 11.9916C52.8406 12.2437 52.498 12.3824 52.1375 12.3824C51.7453 12.3824 51.4167 12.2488 51.1505 11.9803C50.8856 11.7118 50.7493 11.3437 50.7493 10.9681V10.0101C50.7493 9.80086 50.92 9.63195 51.1314 9.63195H52.1388C52.5196 9.63195 52.8431 9.76431 53.1093 10.0278C53.3755 10.2912 53.5092 10.6177 53.5092 11.0072C53.5092 11.3967 53.3717 11.7181 53.0953 11.9916Z" fill="black"/>
<path d="M46.3896 15.2825L46.4318 15.2839C46.4178 15.2839 46.4037 15.2839 46.3896 15.2825Z" fill="black"/>
<path d="M60.5817 2.71631H59.4762C59.1246 2.71631 58.8394 2.99866 58.8394 3.34656V4.32723C58.8394 4.67513 59.1246 4.95749 59.4762 4.95749H60.5817C60.9332 4.95749 61.2185 4.67513 61.2185 4.32723V3.34656C61.2185 2.99866 60.9332 2.71631 60.5817 2.71631Z" fill="black"/>
<path d="M66.9778 17.1467H63.2257C62.8742 17.1467 62.5889 17.4291 62.5889 17.777V18.7778C62.5889 19.1257 62.8742 19.4081 63.2257 19.4081H66.9778C67.3293 19.4081 67.6146 19.1257 67.6146 18.7778V17.777C67.6146 17.4291 67.3293 17.1467 66.9778 17.1467Z" fill="black"/>
<path d="M68.3954 7.66547V11.0058C68.3954 11.7722 68.2018 12.4844 67.8146 13.1436C67.4274 13.8041 66.9002 14.3247 66.234 14.7079C65.5679 15.0911 64.8483 15.2827 64.074 15.2827H62.7418C62.2973 15.2827 61.84 15.0999 61.3713 14.7356V17.6764C61.3713 17.8882 61.2644 18.0848 61.0873 18.2008L58.7604 19.7361C58.4675 19.9302 58.0714 19.8508 57.8765 19.5608L56.962 18.197C56.7684 17.9083 56.8461 17.5188 57.1365 17.3247L58.1389 16.6566C58.3146 16.5394 58.4203 16.344 58.4203 16.1335V8.08774C58.4203 7.79783 58.619 7.54699 58.9018 7.4764L60.5791 7.05791C60.9803 6.95833 61.3713 7.25959 61.3713 7.66926V11.0058C61.3713 11.3827 61.5076 11.7067 61.7802 11.9764C62.0527 12.2461 62.3737 12.381 62.7418 12.381H64.0383C64.414 12.381 64.7821 12.2474 65.0508 11.989C65.326 11.7243 65.4635 11.3966 65.4635 11.0058V8.0701C65.4635 7.78018 65.6635 7.52808 65.9475 7.45875L67.6057 7.05413C68.0069 6.95581 68.3954 7.25707 68.3954 7.66547Z" fill="black"/>
<path d="M69.0525 17.3256L70.0548 16.6575C70.2306 16.5403 70.3363 16.3449 70.3363 16.1344V8.08733C70.3363 7.79868 70.535 7.54658 70.8177 7.47599L72.4951 7.05876C72.8976 6.95918 73.2873 7.25918 73.2873 7.67011V17.6772C73.2873 17.8878 73.1803 18.0844 73.0033 18.2016L70.6763 19.7369C70.3834 19.9298 69.9873 19.8516 69.7924 19.5617L68.8767 18.1978C68.6831 17.9092 68.7608 17.5197 69.0512 17.3268L69.0525 17.3256Z" fill="black"/>
<path d="M96.9833 11.6172C96.9349 11.9954 96.8266 12.3647 96.6649 12.7101C96.2573 13.5786 95.6511 14.2454 94.8449 14.7093C94.1775 15.0925 93.4579 15.2841 92.6835 15.2841H79.6811C79.6696 15.2841 79.6569 15.2803 79.6479 15.2727L79.6441 15.2841C78.857 15.2841 78.1349 15.0925 77.4751 14.7093C76.8141 14.3261 76.2907 13.808 75.9047 13.1551C75.5163 12.5021 75.324 11.7862 75.324 11.0072V3.32313C75.324 3.03447 75.5227 2.78237 75.8067 2.71178L77.4458 2.30968C77.847 2.2101 78.2355 2.51136 78.2355 2.92103V11.0072C78.2355 11.3967 78.3718 11.7231 78.6456 11.9866C78.9182 12.25 79.2506 12.3824 79.6441 12.3824L79.6479 12.3937C79.6569 12.3862 79.6696 12.3824 79.6811 12.3824H92.6199C93.0516 12.3824 93.4757 12.2147 93.7559 11.8895C93.9979 11.6084 94.1024 11.263 94.0667 10.8534C94.045 10.6051 93.9457 10.3668 93.7839 10.1752C93.4885 9.82607 93.1217 9.65086 92.6835 9.65086H81.2336C80.8808 9.65086 80.5968 9.36851 80.5968 9.02061V7.1122C80.5968 6.88783 80.7165 6.67985 80.9139 6.56767L88.0577 2.46725C88.3468 2.30086 88.7175 2.38405 88.9047 2.65884L89.6956 3.81725C89.9019 4.11977 89.8064 4.53069 89.488 4.71473L86.1294 6.65338C86.0836 6.67985 86.1027 6.74918 86.1562 6.74918H92.6835C93.4706 6.74918 94.1941 6.94078 94.8538 7.32397C95.5135 7.70716 96.0408 8.22523 96.4344 8.87817C96.9298 9.70128 97.1132 10.6151 96.9833 11.6172Z" fill="black"/>
</g>
<defs>
<clipPath id="clip0_3535_12512">
<rect width="139" height="21" fill="white"/>
</clipPath>
</defs>
</svg>
