<svg width="115" height="24" viewBox="0 0 115 24" fill="none" xmlns="http://www.w3.org/2000/svg">
<g clip-path="url(#clip0_3535_12538)">
<path d="M102.488 24C95.7875 24 90.3361 18.6171 90.3361 12.0003C90.3361 5.38364 95.7875 0 102.488 0C109.189 0 114.641 5.38294 114.641 11.9997C114.641 18.6164 109.189 23.9993 102.488 23.9993V24ZM102.488 2.07355C96.9452 2.07355 92.436 6.52685 92.436 11.9997C92.436 17.4725 96.9452 21.9258 102.488 21.9258C108.031 21.9258 112.541 17.4731 112.541 11.9997C112.541 6.52616 108.031 2.07355 102.488 2.07355Z" fill="#E61C42"/>
<path d="M99.2551 16.815C96.5665 16.815 94.3784 14.6551 94.3784 11.9996C94.3784 9.34403 96.5658 7.18408 99.2551 7.18408C101.944 7.18408 104.132 9.34403 104.132 11.9996C104.132 14.6551 101.944 16.815 99.2551 16.815ZM99.2551 9.25833C97.7243 9.25833 96.4783 10.4879 96.4783 12.0003C96.4783 13.5126 97.7236 14.7422 99.2551 14.7422C100.787 14.7422 102.032 13.5126 102.032 12.0003C102.032 10.4879 100.787 9.25833 99.2551 9.25833Z" fill="#E61C42"/>
<path d="M108.208 17.5556L104.489 11.9487L108.213 6.43579L109.96 7.58661L107.006 11.959L109.965 16.4193L108.208 17.5556Z" fill="#E61C42"/>
<path d="M85.9957 3.88306H83.3855V16.6997H85.9957V3.88306Z" fill="#E61C42"/>
<path d="M57.5004 3.98828H46.2546V6.56571H57.5004V3.98828Z" fill="#E61C42"/>
<path d="M82.4244 16.6991H79.8142V10.0713H78.142C77.3832 10.0713 76.7658 10.6809 76.7658 11.4302V14.0263H74.1556V11.4302C74.1556 9.25987 75.9441 7.4939 78.1413 7.4939H82.4237V16.6991H82.4244Z" fill="#E61C42"/>
<path d="M50.1654 16.5622H41.3429V13.9848H50.1654C51.258 13.9848 52.147 13.107 52.147 12.0281C52.147 10.9491 51.258 10.0713 50.1654 10.0713H46.2532V7.4939H50.1654C52.6972 7.4939 54.7572 9.52805 54.7572 12.0281C54.7572 14.5281 52.6972 16.5622 50.1654 16.5622Z" fill="#E61C42"/>
<path d="M64.2989 20.1191C60.5233 20.1191 57.4518 17.0862 57.4518 13.3579V9.97248H60.062V13.3579C60.062 15.6651 61.9631 17.5423 64.2996 17.5423C65.3356 17.5423 66.2854 17.1732 67.0225 16.5615C64.6678 16.5277 62.7625 14.6255 62.7625 12.2921C62.7625 9.64625 64.9422 7.4939 67.6217 7.4939H71.1468V13.3579C71.1468 13.5694 71.137 13.7781 71.1174 13.9848H79.8145L78.5546 16.5622H70.3278C69.1693 18.6786 66.9014 20.1198 64.2989 20.1198V20.1191ZM67.6217 10.0706C66.3813 10.0706 65.3727 11.0666 65.3727 12.2914C65.3727 13.2245 66.1419 13.9841 67.0869 13.9841H68.4897C68.5212 13.7795 68.5373 13.5701 68.5373 13.3572V10.0706H67.6224H67.6217Z" fill="#E61C42"/>
<path d="M6.84714 20.1181C3.07148 20.1181 0 17.0852 0 13.357V9.97155H2.6102V13.357C2.6102 15.6641 4.51133 17.5414 6.84784 17.5414C9.18435 17.5414 11.0855 15.6641 11.0855 13.357V7.4895H13.6957V13.357C13.6957 17.0852 10.6242 20.1181 6.84854 20.1181H6.84714Z" fill="#E61C42"/>
<path d="M43.6144 20.1908H41.0042V10.0691H39.593C38.5004 10.0691 37.6114 10.9469 37.6114 12.0259C37.6114 13.1048 38.5004 13.9826 39.593 13.9826H41.0042L39.7442 16.56H39.593C37.0612 16.56 35.0012 14.5259 35.0012 12.0259C35.0012 9.52585 37.0612 7.4917 39.593 7.4917H43.6144V20.1908Z" fill="#E61C42"/>
<path d="M30.442 20.1908H27.8318V10.0691H26.4207C25.328 10.0691 24.4391 10.9469 24.4391 12.0259C24.4391 13.1048 25.328 13.9826 26.4207 13.9826H27.8318L26.5719 16.56H26.4207C23.8889 16.56 21.8289 14.5259 21.8289 12.0259C21.8289 9.52585 23.8889 7.4917 26.4207 7.4917H30.442V20.1908Z" fill="#E61C42"/>
<path d="M34.1413 7.4895H31.5311V20.1914H34.1413V7.4895Z" fill="#E61C42"/>
<path d="M17.2694 7.4895H14.6592V16.6532H17.2694V7.4895Z" fill="#E61C42"/>
<path d="M20.6045 14.0803H11.3242V16.6577H20.6045V14.0803Z" fill="#E61C42"/>
<path d="M20.951 7.4895H18.3408V16.6532H20.951V7.4895Z" fill="#E61C42"/>
<path d="M13.0195 6.5395C13.783 6.5395 14.402 5.92833 14.402 5.17442C14.402 4.4205 13.783 3.80933 13.0195 3.80933C12.256 3.80933 11.6371 4.4205 11.6371 5.17442C11.6371 5.92833 12.256 6.5395 13.0195 6.5395Z" fill="#E61C42"/>
<path d="M15.9613 6.5395C16.7248 6.5395 17.3438 5.92833 17.3438 5.17442C17.3438 4.4205 16.7248 3.80933 15.9613 3.80933C15.1978 3.80933 14.5789 4.4205 14.5789 5.17442C14.5789 5.92833 15.1978 6.5395 15.9613 6.5395Z" fill="#E61C42"/>
<path d="M18.9026 6.5395C19.6661 6.5395 20.285 5.92833 20.285 5.17442C20.285 4.4205 19.6661 3.80933 18.9026 3.80933C18.1391 3.80933 17.5201 4.4205 17.5201 5.17442C17.5201 5.92833 18.1391 6.5395 18.9026 6.5395Z" fill="#E61C42"/>
<path d="M67.0736 6.5395C67.8371 6.5395 68.4561 5.92833 68.4561 5.17442C68.4561 4.4205 67.8371 3.80933 67.0736 3.80933C66.3101 3.80933 65.6912 4.4205 65.6912 5.17442C65.6912 5.92833 66.3101 6.5395 67.0736 6.5395Z" fill="#E61C42"/>
<path d="M70.0154 6.5395C70.7789 6.5395 71.3978 5.92833 71.3978 5.17442C71.3978 4.4205 70.7789 3.80933 70.0154 3.80933C69.2519 3.80933 68.6329 4.4205 68.6329 5.17442C68.6329 5.92833 69.2519 6.5395 70.0154 6.5395Z" fill="#E61C42"/>
<path d="M78.6772 6.5395C79.4408 6.5395 80.0597 5.92833 80.0597 5.17442C80.0597 4.4205 79.4408 3.80933 78.6772 3.80933C77.9137 3.80933 77.2948 4.4205 77.2948 5.17442C77.2948 5.92833 77.9137 6.5395 78.6772 6.5395Z" fill="#E61C42"/>
</g>
<defs>
<clipPath id="clip0_3535_12538">
<rect width="115" height="24" fill="white"/>
</clipPath>
</defs>
</svg>
