<svg width="28" height="28" viewBox="0 0 28 28" fill="none" xmlns="http://www.w3.org/2000/svg">
<path d="M24 18.1667H20.709C19.3049 18.1667 18.1667 19.3049 18.1667 20.709V24M24 18.1667C24 19.2339 23.5761 20.2573 22.8215 21.0118L21.0118 22.8215C20.2573 23.5761 19.2339 24 18.1667 24M24 18.1667V8.24364C24 7.11818 23.5529 6.03877 22.7571 5.24292C21.9612 4.44712 20.8818 4 19.7564 4H8.24364C7.11818 4 6.03877 4.44712 5.24292 5.24292C4.44712 6.03877 4 7.11818 4 8.24364V19.7564C4 20.8818 4.44712 21.9612 5.24292 22.7571C6.03877 23.5529 7.11818 24 8.24364 24H17.3333H18.1667M9 19H14M9 9H19M9 14H19" stroke="currentColor" stroke-miterlimit="10" stroke-linecap="round" stroke-linejoin="round"/>
</svg>
