<svg width="17" height="17" viewBox="0 0 17 17" fill="none" xmlns="http://www.w3.org/2000/svg">
<path d="M12.5 0.5H4.5C2.29086 0.5 0.5 2.29086 0.5 4.5V12.5C0.5 14.7091 2.29086 16.5 4.5 16.5H12.5C14.7091 16.5 16.5 14.7091 16.5 12.5V4.5C16.5 2.29086 14.7091 0.5 12.5 0.5Z" stroke="white" stroke-linecap="round" stroke-linejoin="round"/>
<path d="M8.5 11.5C10.1569 11.5 11.5 10.1569 11.5 8.5C11.5 6.84315 10.1569 5.5 8.5 5.5C6.84315 5.5 5.5 6.84315 5.5 8.5C5.5 10.1569 6.84315 11.5 8.5 11.5Z" stroke="white" stroke-linecap="round" stroke-linejoin="round"/>
<path d="M13 4V4.001" stroke="white" stroke-linecap="round" stroke-linejoin="round"/>
</svg>
