<svg width="17" height="17" viewBox="0 0 17 17" fill="none" xmlns="http://www.w3.org/2000/svg">
<path d="M14.5 0.5H2.5C1.39543 0.5 0.5 1.39543 0.5 2.5V14.5C0.5 15.6046 1.39543 16.5 2.5 16.5H14.5C15.6046 16.5 16.5 15.6046 16.5 14.5V2.5C16.5 1.39543 15.6046 0.5 14.5 0.5Z" stroke="white" stroke-linecap="round" stroke-linejoin="round"/>
<path d="M4.5 7.5V12.5" stroke="white" stroke-linecap="round" stroke-linejoin="round"/>
<path d="M4.5 4.5V4.51" stroke="white" stroke-linecap="round" stroke-linejoin="round"/>
<path d="M8.5 12.5V7.5" stroke="white" stroke-linecap="round" stroke-linejoin="round"/>
<path d="M12.5 12.5V9.5C12.5 8.96957 12.2893 8.46086 11.9142 8.08579C11.5391 7.71071 11.0304 7.5 10.5 7.5C9.96957 7.5 9.46086 7.71071 9.08579 8.08579C8.71071 8.46086 8.5 8.96957 8.5 9.5" stroke="white" stroke-linecap="round" stroke-linejoin="round"/>
</svg>
