<svg width="28" height="28" viewBox="0 0 28 28" fill="none" xmlns="http://www.w3.org/2000/svg">
<path d="M21 14L17.5202 20.5556C17.0593 21.4602 15.8618 22.3313 14.8591 22.4914L5.55497 23.9769C4.55241 24.137 3.86294 23.4476 4.02312 22.4451L5.50862 13.141C5.66862 12.1385 6.53987 10.941 7.44455 10.4801L14 7" stroke="currentColor" stroke-miterlimit="10" stroke-linecap="round" stroke-linejoin="round"/>
<path d="M12 16L4.5 23.5" stroke="currentColor" stroke-miterlimit="10" stroke-linecap="round" stroke-linejoin="round"/>
<path d="M22.5917 13.5234C21.9562 14.1589 20.9163 14.1589 20.2808 13.5234L14.4767 7.71927C13.8411 7.08374 13.8411 6.04383 14.4767 5.4083L15.4083 4.47656C16.0439 3.84107 17.0838 3.84119 17.7193 4.47667L23.5233 10.2807C24.1589 10.9162 24.1589 11.9562 23.5233 12.5918L22.5917 13.5234Z" stroke="currentColor" stroke-miterlimit="10" stroke-linecap="round" stroke-linejoin="round"/>
</svg>
