<svg width="28" height="28" viewBox="0 0 28 28" fill="none" xmlns="http://www.w3.org/2000/svg">
<g clip-path="url(#clip0_3727_625)">
<path d="M6.94732 17.3683C8.86578 17.3683 10.421 15.813 10.421 13.8946C10.421 11.9761 8.86578 10.4209 6.94732 10.4209C5.02885 10.4209 3.47363 11.9761 3.47363 13.8946C3.47363 15.813 5.02885 17.3683 6.94732 17.3683Z" stroke="black" stroke-linecap="round" stroke-linejoin="round"/>
<path d="M20.8421 10.421C22.7606 10.421 24.3158 8.86578 24.3158 6.94732C24.3158 5.02885 22.7606 3.47363 20.8421 3.47363C18.9236 3.47363 17.3684 5.02885 17.3684 6.94732C17.3684 8.86578 18.9236 10.421 20.8421 10.421Z" stroke="black" stroke-linecap="round" stroke-linejoin="round"/>
<path d="M20.8421 24.316C22.7606 24.316 24.3158 22.7608 24.3158 20.8423C24.3158 18.9239 22.7606 17.3687 20.8421 17.3687C18.9236 17.3687 17.3684 18.9239 17.3684 20.8423C17.3684 22.7608 18.9236 24.316 20.8421 24.316Z" stroke="black" stroke-linecap="round" stroke-linejoin="round"/>
<path d="M10.0737 12.3895L17.7158 8.45264" stroke="black" stroke-linecap="round" stroke-linejoin="round"/>
<path d="M10.0737 15.3999L17.7158 19.3367" stroke="black" stroke-linecap="round" stroke-linejoin="round"/>
</g>
<defs>
<clipPath id="clip0_3727_625">
<rect width="27.7895" height="27.7895" fill="white"/>
</clipPath>
</defs>
</svg>
