<svg width="19" height="19" viewBox="0 0 19 19" fill="none" xmlns="http://www.w3.org/2000/svg">
<path d="M0.5 18.4831L2.15 14.6831C0.887663 12.8912 0.322667 10.7002 0.561045 8.52123C0.799422 6.3423 1.82479 4.32526 3.44471 2.84864C5.06463 1.37203 7.16775 0.537337 9.35938 0.501223C11.551 0.465109 13.6805 1.23005 15.3482 2.6525C17.0159 4.07494 18.1071 6.0571 18.4172 8.22699C18.7272 10.3969 18.2347 12.6053 17.0321 14.4379C15.8295 16.2705 13.9994 17.6011 11.8854 18.1802C9.77134 18.7593 7.51863 18.547 5.55 17.5831L0.5 18.4831" stroke="white" stroke-linecap="round" stroke-linejoin="round"/>
<path d="M6.5 7.4834C6.5 7.61601 6.55268 7.74318 6.64645 7.83695C6.74021 7.93072 6.86739 7.9834 7 7.9834C7.13261 7.9834 7.25979 7.93072 7.35355 7.83695C7.44732 7.74318 7.5 7.61601 7.5 7.4834V6.4834C7.5 6.35079 7.44732 6.22361 7.35355 6.12984C7.25979 6.03608 7.13261 5.9834 7 5.9834C6.86739 5.9834 6.74021 6.03608 6.64645 6.12984C6.55268 6.22361 6.5 6.35079 6.5 6.4834V7.4834ZM6.5 7.4834C6.5 8.80948 7.02678 10.0813 7.96447 11.0189C8.90215 11.9566 10.1739 12.4834 11.5 12.4834H12.5C12.6326 12.4834 12.7598 12.4307 12.8536 12.337C12.9473 12.2432 13 12.116 13 11.9834C13 11.8508 12.9473 11.7236 12.8536 11.6298C12.7598 11.5361 12.6326 11.4834 12.5 11.4834H11.5C11.3674 11.4834 11.2402 11.5361 11.1464 11.6298C11.0527 11.7236 11 11.8508 11 11.9834C11 12.116 11.0527 12.2432 11.1464 12.337C11.2402 12.4307 11.3674 12.4834 11.5 12.4834" stroke="white" stroke-linecap="round" stroke-linejoin="round"/>
</svg>
